<svg aria-hidden="true" style="position: absolute; width: 0; height: 0; overflow: hidden;"
    version="1.1"
    xmlns="http://www.w3.org/2000/svg" xmlns:xlink="http://www.w3.org/1999/xlink">
    <defs>

        <symbol id="location" viewBox="0 0 32 32">
            <path
                d="M23.791 2.748c-1.983-1.774-4.765-2.748-7.791-2.748s-5.809 0.974-7.791 2.748c-2.435 2.157-3.687 5.391-3.687 9.426 0 8.731 10.052 18.991 10.504 19.409 0.278 0.278 0.626 0.417 0.974 0.417s0.73-0.139 0.974-0.417c0.452-0.417 10.504-10.678 10.504-19.409 0-4.035-1.252-7.27-3.687-9.426zM16 28.557c-0.939-1.043-2.435-2.783-3.896-4.87-3.13-4.452-4.8-8.417-4.8-11.513 0-8.696 6.643-9.391 8.696-9.391 8.069 0 8.696 7.2 8.696 9.391 0 6.122-6.226 13.67-8.696 16.383zM16 6.017c-3.061 0-5.53 2.539-5.53 5.635s2.47 5.6 5.53 5.6c3.061 0 5.53-2.539 5.53-5.635s-2.47-5.6-5.53-5.6zM16 14.817c-1.704 0-3.096-1.426-3.096-3.2s1.391-3.2 3.096-3.2c1.704 0 3.096 1.426 3.096 3.2s-1.391 3.2-3.096 3.2z">
            </path>
        </symbol>
        <symbol id="envelope" viewBox="0 0 43 32">
            <path
                d="M38.667 0h-34.667c-2.206 0-4 1.794-4 4v24c0 2.206 1.794 4 4 4h34.667c2.206 0 4-1.794 4-4v-24c0-2.206-1.794-4-4-4zM38.667 2.667c0.181 0 0.353 0.038 0.511 0.103l-17.844 15.466-17.844-15.466c0.158-0.066 0.33-0.103 0.511-0.103h34.667zM38.667 29.333h-34.667c-0.736 0-1.333-0.598-1.333-1.333v-22.413l17.793 15.421c0.251 0.217 0.563 0.326 0.874 0.326s0.622-0.108 0.874-0.326l17.793-15.421v22.413c0 0.736-0.598 1.333-1.333 1.333z">
            </path>
        </symbol>

        <symbol id="email-black" viewBox="0 0 32 32">
            <path
                d="M26.667 5.333h-21.333c-1.467 0-2.653 1.2-2.653 2.667l-0.013 16c0 1.467 1.2 2.667 2.667 2.667h21.333c1.467 0 2.667-1.2 2.667-2.667v-16c0-1.467-1.2-2.667-2.667-2.667zM26.133 11l-9.427 5.893c-0.427 0.267-0.987 0.267-1.413 0l-9.427-5.893c-0.333-0.213-0.533-0.573-0.533-0.96 0-0.893 0.973-1.427 1.733-0.96l8.933 5.587 8.933-5.587c0.76-0.467 1.733 0.067 1.733 0.96 0 0.387-0.2 0.747-0.533 0.96z">
            </path>
        </symbol>
        <symbol id="phone" viewBox="0 0 32 32">
            <path
                d="M24.882 19.773l-3.268-0.373c-0.785-0.090-1.557 0.18-2.11 0.733l-2.367 2.367c-3.641-1.853-6.626-4.825-8.478-8.478l2.38-2.38c0.553-0.553 0.823-1.325 0.733-2.11l-0.373-3.242c-0.154-1.299-1.248-2.277-2.56-2.277h-2.226c-1.454 0-2.663 1.209-2.573 2.663 0.682 10.987 9.469 19.761 20.443 20.443 1.454 0.090 2.663-1.119 2.663-2.573v-2.226c0.013-1.3-0.965-2.393-2.264-2.547z">
            </path>
        </symbol>
        <symbol id="logo-superfit" viewBox="0 0 100 30">
            <text
                x="50%"
                y="50%"
                text-anchor="middle"
                dominant-baseline="middle"
                font-family="Inter, system-ui, sans-serif"
                font-size="24"
                fill="white"
                stroke="#062471"
                stroke-width="4"
                paint-order="stroke fill"
                letter-spacing="5">
                Superfit
            </text>
        </symbol>
    </defs>
</svg>